HIERARCHY
ROOT Hips
{
	OFFSET -0.001795 -0.223333 0.028219
	CHANNELS 6 Xposition Yposition Zposition Zrotation Yrotation Xrotation
	JOINT LeftUpLeg
	{
		OFFSET 0.069520 -0.091406 -0.006815
		CHANNELS 3 Zrotation Yrotation Xrotation
		JOINT LeftLeg
		{
			OFFSET 0.034277 -0.375199 -0.004496
			CHANNELS 3 Zrotation Yrotation Xrotation
			JOINT LeftFoot
			{
				OFFSET -0.013596 -0.397961 -0.043693
				CHANNELS 3 Zrotation Yrotation Xrotation
				JOINT LeftToe
				{
					OFFSET 0.026358 -0.055791 0.119288
					CHANNELS 3 Zrotation Yrotation Xrotation
					End Site
					{
						OFFSET 0.000000 0.000000 0.000000
					}
				}
			}
		}
	}
	JOINT RightUpLeg
	{
		OFFSET -0.067670 -0.090522 -0.004320
		CHANNELS 3 Zrotation Yrotation Xrotation
		JOINT RightLeg
		{
			OFFSET -0.038290 -0.382569 -0.008850
			CHANNELS 3 Zrotation Yrotation Xrotation
			JOINT RightFoot
			{
				OFFSET 0.015774 -0.398415 -0.042312
				CHANNELS 3 Zrotation Yrotation Xrotation
				JOINT RightToe
				{
					OFFSET -0.025372 -0.048144 0.123348
					CHANNELS 3 Zrotation Yrotation Xrotation
					End Site
					{
						OFFSET 0.000000 0.000000 0.000000
					}
				}
			}
		}
	}
	JOINT Spine
	{
		OFFSET -0.002533 0.108963 -0.026696
		CHANNELS 3 Zrotation Yrotation Xrotation
		JOINT Spine1
		{
			OFFSET 0.005487 0.135180 0.001092
			CHANNELS 3 Zrotation Yrotation Xrotation
			JOINT Spine2
			{
				OFFSET 0.001457 0.052922 0.025425
				CHANNELS 3 Zrotation Yrotation Xrotation
				JOINT Neck
				{
					OFFSET -0.002778 0.213870 -0.042857
					CHANNELS 3 Zrotation Yrotation Xrotation
					JOINT Head
					{
						OFFSET 0.005152 0.064970 0.051349
						CHANNELS 3 Zrotation Yrotation Xrotation
						End Site
						{
							OFFSET 0.000000 0.000000 0.000000
						}
					}
				}
				JOINT LeftShoulder
				{
					OFFSET 0.078845 0.121749 -0.034090
					CHANNELS 3 Zrotation Yrotation Xrotation
					JOINT LeftArm
					{
						OFFSET 0.090977 0.030469 -0.008868
						CHANNELS 3 Zrotation Yrotation Xrotation
						JOINT LeftForeArm
						{
							OFFSET 0.259612 -0.012772 -0.027456
							CHANNELS 3 Zrotation Yrotation Xrotation
							JOINT LeftHand
							{
								OFFSET 0.249234 0.008986 -0.001171
								CHANNELS 3 Zrotation Yrotation Xrotation
								End Site
								{
									OFFSET 0.000000 0.000000 0.000000
								}
							}
						}
					}
				}
				JOINT RightShoulder
				{
					OFFSET -0.081759 0.118833 -0.038615
					CHANNELS 3 Zrotation Yrotation Xrotation
					JOINT RightArm
					{
						OFFSET -0.096012 0.032551 -0.009143
						CHANNELS 3 Zrotation Yrotation Xrotation
						JOINT RightForeArm
						{
							OFFSET -0.253742 -0.013329 -0.021401
							CHANNELS 3 Zrotation Yrotation Xrotation
							JOINT RightHand
							{
								OFFSET -0.255298 0.007772 -0.005559
								CHANNELS 3 Zrotation Yrotation Xrotation
								End Site
								{
									OFFSET 0.000000 0.000000 0.000000
								}
							}
						}
					}
				}
			}
		}
	}
}
MOTION
Frames: 7
Frame Time: 0.050000
0.000000 0.680310 0.000000 -1.684333 -22.949693 70.402073 -22.526461 0.196575 -80.542050 8.954962 -5.528262 42.512399 -17.848454 -22.382304 13.110896 0.000000 0.000000 0.000000 -11.520203 16.117063 -61.992482 24.002188 -4.561476 36.708154 -9.996484 -27.407516 41.398875 0.000000 0.000000 0.000000 22.237923 1.148330 89.818487 -4.695560 1.447532 -35.141041 -16.402615 -26.788285 24.624565 5.488109 0.607005 -52.702592 0.000000 0.000000 0.000000 57.086749 -4.814124 -4.674650 7.395112 -36.666794 2.948487 11.443475 17.156948 2.551697 0.000000 0.000000 0.000000 -62.154222 -13.240039 13.291303 -15.406386 17.000835 -3.353123 -3.808264 -9.756571 -0.275677 0.000000 0.000000 0.000000
-0.104184 0.683465 0.049035 164.782778 37.643455 110.742785 -79.238869 -21.355531 54.398816 45.795004 -25.855144 9.199799 -73.502707 -48.553676 58.614427 0.000000 0.000000 0.000000 -32.486928 -32.280565 61.413163 65.972868 -23.160747 -48.964352 -13.316905 -22.937072 38.100446 0.000000 0.000000 0.000000 174.769414 -18.525230 -77.602387 -1.877948 2.011772 -35.158592 -9.721882 -20.383117 22.027564 -2.271231 2.201578 -55.070058 0.000000 0.000000 0.000000 47.169224 -12.108180 -5.839653 9.403958 -34.272395 2.583695 27.089382 28.352605 10.950310 0.000000 0.000000 0.000000 -61.088741 -14.264681 15.091698 -18.901584 16.201014 -3.189764 -5.197641 -16.236430 -0.542805 0.000000 0.000000 0.000000
-0.216122 0.687446 0.094011 157.478288 40.534250 104.610124 -82.039398 -25.182672 44.084860 39.420784 -24.838188 15.750567 -52.012548 -30.966815 49.131632 0.000000 0.000000 0.000000 -63.248432 -27.498013 73.219679 86.279210 -44.629729 -19.582438 2.036091 -6.392305 19.441748 0.000000 0.000000 0.000000 174.697710 -23.201565 -74.242966 -2.548204 2.255547 -35.250318 -12.705457 -23.922239 22.097928 -6.159082 2.725741 -56.326448 0.000000 0.000000 0.000000 43.678429 -6.423422 -8.747777 4.736745 -33.768534 3.477696 34.826343 30.995291 17.395187 0.000000 0.000000 0.000000 -65.310872 -12.522106 16.177803 -15.423008 14.895847 -2.355076 -3.189405 -11.834080 -0.425140 0.000000 0.000000 0.000000
-0.326421 0.677074 0.137469 152.263499 43.690132 100.240261 -83.720515 -30.708662 35.431948 37.333730 -28.576923 21.518900 -39.054907 -30.640919 34.815285 0.000000 0.000000 0.000000 -74.197650 -24.561757 72.744841 81.471668 -59.552860 7.967633 -7.047390 1.604019 -18.213659 0.000000 0.000000 0.000000 175.302629 -27.943170 -71.445040 -3.756051 2.434288 -34.847193 -15.127857 -22.185313 23.472622 -8.222814 3.644406 -58.161940 0.000000 0.000000 0.000000 40.207966 -8.953325 -8.340410 10.608933 -29.485220 1.356018 36.984045 38.136440 22.251899 0.000000 0.000000 0.000000 -62.964109 -11.107082 16.161172 -13.746063 15.588236 -2.384005 -1.334631 -13.074969 -0.668534 0.000000 0.000000 0.000000
-0.432592 0.644959 0.185835 145.805880 46.096091 95.100917 -77.298062 -35.771549 21.976108 41.504296 -43.337555 26.827621 0.667460 -45.663410 -21.426628 0.000000 0.000000 0.000000 -80.278003 -22.353537 71.152605 42.181112 -65.856149 67.672449 -18.987535 11.756257 -64.273647 0.000000 0.000000 0.000000 177.398678 -35.815320 -68.949839 -4.439950 2.491201 -33.969399 -17.850725 -23.688598 23.603693 -7.895514 4.857396 -61.851934 0.000000 0.000000 0.000000 29.454361 -11.125448 -5.870231 13.833973 -20.299389 -0.375475 68.262625 31.793005 41.900415 0.000000 0.000000 0.000000 -58.402868 -7.126415 17.090265 -12.302783 18.775582 -3.483249 -0.776197 -13.238536 -0.719745 0.000000 0.000000 0.000000
-0.528569 0.586068 0.239497 144.398920 50.255328 92.280363 -76.396016 -40.100667 12.392393 18.585638 -68.985376 68.790083 19.498821 -20.300763 -65.249675 0.000000 0.000000 0.000000 -78.459907 -18.403820 73.717703 17.952196 -61.257271 102.590626 -10.467840 39.283905 -84.490581 0.000000 0.000000 0.000000 178.904998 -39.263445 -64.300742 -5.575230 2.601880 -33.322796 -21.049846 -25.042783 23.098525 -10.470142 7.868800 -71.402428 0.000000 0.000000 0.000000 3.331101 -15.457452 9.932584 34.204431 -15.396380 -0.723120 112.178572 24.651282 72.166072 0.000000 0.000000 0.000000 -47.841299 -3.151804 19.037785 -12.547853 21.257438 -5.398660 -6.982351 -14.699036 -0.758255 0.000000 0.000000 0.000000
-0.611495 0.513975 0.298894 145.100029 53.309906 90.865938 -70.049698 -34.281891 2.866308 -54.825191 -61.128583 166.701748 11.701180 -6.897813 -82.838875 0.000000 0.000000 0.000000 -76.174722 -12.770570 79.480635 10.937340 -59.268008 111.973979 125.498489 36.037895 57.362955 0.000000 0.000000 0.000000 174.382797 -36.654628 -55.533918 -8.844789 2.890678 -32.755871 -29.204218 -34.685503 25.565870 -18.395209 14.756351 -92.560013 0.000000 0.000000 0.000000 -21.854461 -8.092193 35.365225 39.322456 -1.223397 3.412533 145.631139 13.181660 68.037742 0.000000 0.000000 0.000000 -28.615301 7.545011 15.790848 -13.085374 20.941341 -8.114037 -21.674356 -21.326905 -2.863053 0.000000 0.000000 0.000000
